<mxfile host="app.diagrams.net" modified="2022-07-28T09:19:12.553Z" agent="5.0 (Windows NT 10.0; Win64; x64) AppleWebKit/537.36 (KHTML, like Gecko) Chrome/101.0.0.0 Safari/537.36" etag="4lqt4gD7BOtpCv5EdUd2" version="20.2.2" type="github">
  <diagram id="La5-blvGE7-tQWZtybyk" name="第 1 页">
    <mxGraphModel dx="716" dy="380" grid="1" gridSize="10" guides="1" tooltips="1" connect="1" arrows="1" fold="1" page="1" pageScale="1" pageWidth="827" pageHeight="1169" math="0" shadow="0">
      <root>
        <mxCell id="0" />
        <mxCell id="1" parent="0" />
        <mxCell id="m1_zrr5u4e3Uu1mELBsT-80" value="" style="shape=table;startSize=0;container=1;collapsible=0;childLayout=tableLayout;" vertex="1" parent="1">
          <mxGeometry x="110" y="140" width="150" height="115" as="geometry" />
        </mxCell>
        <mxCell id="m1_zrr5u4e3Uu1mELBsT-81" value="" style="shape=tableRow;horizontal=0;startSize=0;swimlaneHead=0;swimlaneBody=0;top=0;left=0;bottom=0;right=0;collapsible=0;dropTarget=0;fillColor=none;points=[[0,0.5],[1,0.5]];portConstraint=eastwest;" vertex="1" parent="m1_zrr5u4e3Uu1mELBsT-80">
          <mxGeometry width="150" height="40" as="geometry" />
        </mxCell>
        <mxCell id="m1_zrr5u4e3Uu1mELBsT-82" value="IGun" style="shape=partialRectangle;html=1;whiteSpace=wrap;connectable=0;overflow=hidden;fillColor=none;top=0;left=0;bottom=0;right=0;pointerEvents=1;" vertex="1" parent="m1_zrr5u4e3Uu1mELBsT-81">
          <mxGeometry width="150" height="40" as="geometry">
            <mxRectangle width="150" height="40" as="alternateBounds" />
          </mxGeometry>
        </mxCell>
        <mxCell id="m1_zrr5u4e3Uu1mELBsT-83" value="" style="shape=tableRow;horizontal=0;startSize=0;swimlaneHead=0;swimlaneBody=0;top=0;left=0;bottom=0;right=0;collapsible=0;dropTarget=0;fillColor=none;points=[[0,0.5],[1,0.5]];portConstraint=eastwest;" vertex="1" parent="m1_zrr5u4e3Uu1mELBsT-80">
          <mxGeometry y="40" width="150" height="75" as="geometry" />
        </mxCell>
        <mxCell id="m1_zrr5u4e3Uu1mELBsT-84" value="CurrentGun:GunInfo" style="shape=partialRectangle;html=1;whiteSpace=wrap;connectable=0;overflow=hidden;fillColor=none;top=0;left=0;bottom=0;right=0;pointerEvents=1;" vertex="1" parent="m1_zrr5u4e3Uu1mELBsT-83">
          <mxGeometry width="150" height="75" as="geometry">
            <mxRectangle width="150" height="75" as="alternateBounds" />
          </mxGeometry>
        </mxCell>
      </root>
    </mxGraphModel>
  </diagram>
</mxfile>
